<svg width="423" height="341" xmlns="http://www.w3.org/2000/svg"><g fill="none" fill-rule="evenodd"><g stroke="#A3B1BF" stroke-width="1.62" opacity=".6" stroke-linejoin="round" stroke-dasharray="12.15"><path d="M224.992533 290.054254c-65.928119 0-119.3741646-53.434569-119.3741646-119.34995 0-65.91538 53.4460456-119.3499488 119.3741646-119.3499488 65.928755 0 119.374165 53.4345688 119.374165 119.3499488 0 65.915381-53.44541 119.34995-119.374165 119.34995z"/><path d="M224.823047 339.719167c-93.3782626 0-169.07628712-75.682669-169.07628712-169.041989 0-93.3593204 75.69802452-169.04198939 169.07628712-169.04198939 93.378262 0 169.076286 75.68266899 169.076286 169.04198939 0 93.35932-75.698024 169.041989-169.076286 169.041989z"/></g><path fill="#F5F5F5" d="M78.61731778 196.40117546l20.27778725-1.05229528L84.051799 209.20040016z"/><path stroke="#A3B1BF" stroke-width="1.62" stroke-linejoin="round" d="M78.61731778 196.40117546l20.27778725-1.05229528L84.051799 209.20040016z"/><path d="M22.03788765 208.97231776l20.25160926-8.59387338 13.66485134 32.18329382-20.25160963 8.5938743z"/><path stroke="#A3B1BF" stroke-width="1.62" stroke-linejoin="round" d="M22.03788765 208.97231776l20.25160926-8.59387338 13.66485134 32.18329382-20.25160963 8.5938743z"/><path fill="#F5F5F5" d="M38.86685667 193.41418499l4.9967424-2.12039321 19.72173663 46.44725138-4.99733097 2.12015434z"/><path stroke="#A3B1BF" stroke-width="1.62" fill="#F0F2F5" stroke-linejoin="round" d="M38.86685667 193.41418499l4.9967424-2.12039321 19.72173663 46.44725138-4.99733097 2.12015434z"/><path d="M43.48535694 251.00356638l18.75142926-7.95726535 23.67453314 55.7568307-18.75142861 7.95726454z"/><path stroke="#A3B1BF" stroke-width="1.62" stroke-linejoin="round" d="M43.48535694 251.00356638l18.75142926-7.95726535 23.67453314 55.7568307-18.75142861 7.95726454z"/><path d="M48.06832039 201.19566762l3.46265478-1.4693954 11.31300262 26.64310131-3.46324344 1.46915649z"/><path stroke="#A3B1BF" stroke-width="1.62" stroke-linejoin="round" d="M48.06832039 201.19566762l3.46265478-1.4693954 11.31300262 26.64310131-3.46324344 1.46915649z"/><path fill="#F5F5F5" d="M53.78265113 204.41932152l8.0219132-3.40413976.76506872 1.8018808-8.0219132 3.40413976z"/><path stroke="#A3B1BF" stroke-width="1.62" stroke-linejoin="round" d="M53.78265113 204.41932152l8.0219132-3.40413976.76506872 1.8018808-8.0219132 3.40413976z"/><path fill="#F5F5F5" d="M60.28348832 219.7300156l8.0219132-3.40413977.76506872 1.8018808-8.0219132 3.40413976z"/><path stroke="#A3B1BF" stroke-width="1.62" stroke-linejoin="round" d="M60.28348832 219.7300156l8.0219132-3.40413977.76506872 1.8018808-8.0219132 3.40413976z"/><path d="M49.43655517 239.01161815l3.40576726 8.02122237-1.80203597.76470318-3.40576726-8.02122237z"/><path stroke="#A3B1BF" stroke-width="1.62" stroke-linejoin="round" d="M49.43655517 239.01161815l3.40576726 8.02122237-1.80203597.76470318-3.40576726-8.02122237z"/><path d="M17.43322504 217.13438761l4.60447441-8.16228247 13.66520223 32.18412153-9.0716473-2.35874997z"/><path stroke="#A3B1BF" stroke-width="1.62" stroke-linejoin="round" d="M17.43322504 217.13438761l4.60447441-8.16228247 13.66520223 32.18412153-9.0716473-2.35874997z"/><path d="M17.4331904 217.13430406l-5.6528236-3.8095454 13.66520213 32.18412149 1.18565043-6.71148608z"/><path stroke="#A3B1BF" stroke-width="1.62" stroke-linejoin="round" d="M17.4331904 217.13430406l-5.6528236-3.8095454 13.66520213 32.18412149 1.18565043-6.71148608z"/><path d="M14.11652935 219.19005367l-5.7715191-1.16516601 4.0742809 9.59569717 3.17084687-4.95990502z"/><path stroke="#A3B1BF" stroke-width="1.62" stroke-linejoin="round" d="M14.11652935 219.19005367l-5.7715191-1.16516601 4.0742809 9.59569717 3.17084687-4.95990502z"/><path d="M21.3745588 236.28396452l-5.77151874-1.16516694 4.07428053 9.5956981 3.17084687-4.95990502z"/><path stroke="#A3B1BF" stroke-width="1.62" stroke-linejoin="round" d="M21.3745588 236.28396452l-5.77151874-1.16516694 4.07428053 9.5956981 3.17084687-4.95990502z"/><path fill="#F0F2F5" d="M52.49775272 201.39302867l2.41070885-1.0229962 3.29961913 7.77007283-2.41094701 1.02358594z"/><path stroke="#A3B1BF" stroke-width="1.62" stroke-linejoin="round" d="M52.49775272 201.39302867l2.41070885-1.0229962 3.29961913 7.77007283-2.41094701 1.02358594z"/><path fill="#F0F2F5" d="M59.01649646 216.74589697l2.41070885-1.0229962 3.29961922 7.77007287-2.4109471 1.0235859z"/><path stroke="#A3B1BF" stroke-width="1.62" stroke-linejoin="round" d="M59.01649646 216.74589697l2.41070885-1.0229962 3.29961922 7.77007287-2.4109471 1.0235859z"/><path d="M45.40979553 237.03695865l3.6007638-1.52800238 1.64951496 3.88491793-3.6007639 1.52800234z"/><path stroke="#A3B1BF" stroke-width="1.62" fill="#F5F5F5" stroke-linejoin="round" d="M45.40979553 237.03695865l3.6007638-1.52800238 1.64951496 3.88491793-3.6007639 1.52800234z"/><path d="M66.81684935 209.04342908c-6.094919-14.35468034-5.14346351-28.945952 1.65910364-35.51726303 1.12478446-1.08628544 3.701952-2.9079598 5.7478703 1.91056186 2.04532916 4.81828364 19.9100447 46.89190155 21.77338628 51.28041956 1.86334027 4.38851855-.90703905 5.75054469-2.46859246 5.80470848-9.45475082.32951718-20.61649833-9.122919-26.71176776-23.47842687z" fill="#F5F5F5"/><path d="M66.81684935 209.04342908c-6.094919-14.35468034-5.14346351-28.945952 1.65910364-35.51726303 1.12478446-1.08628544 3.701952-2.9079598 5.7478703 1.91056186 2.04532916 4.81828364 19.9100447 46.89190155 21.77338628 51.28041956 1.86334027 4.38851855-.90703905 5.75054469-2.46859246 5.80470848-9.45475082.32951718-20.61649833-9.122919-26.71176776-23.47842687z" stroke="#A3B1BF" stroke-width="1.62" fill="#F0F2F5" stroke-linejoin="round"/><path fill="#F0F2F5" d="M61.15303231 199.4809305l2.41070876-1.02299625 8.55093373 20.13905663-2.41070885 1.0229962z"/><path stroke="#A3B1BF" stroke-width="1.62" stroke-linejoin="round" d="M61.15303231 199.4809305l2.41070876-1.02299625 8.55093373 20.13905663-2.41070885 1.0229962z"/><path d="M100.72999493 197.67972878c-1.45552237.61765821-3.13609781-.06133834-3.75405153-1.51673527-.61736496-1.45515906.06149411-3.13539422 1.51642772-3.75329031 1.4552845-.61706946 3.13585993.0619271 3.75405153 1.51673527.61795372 1.45539693-.06090535 3.1356321-1.51642772 3.7532903" fill="#A3B1BF"/><path fill-opacity=".6" fill="#A3B1BF" d="M60.64523327 250.55467608l-.89322384-2.10371064 2.10389167-.89279737.89322375 2.1037106z"/><path d="M60.64523327 250.55467608l-.89322384-2.10371064 2.10389167-.89279737.89322375 2.1037106z"/><path fill-opacity=".6" fill="#A3B1BF" d="M62.09686255 253.9735362l-.89322384-2.10371065 2.10389167-.89279737.89322374 2.1037106z"/><path d="M62.09686255 253.9735362l-.89322384-2.10371065 2.10389167-.89279737.89322374 2.1037106z"/><path fill-opacity=".6" fill="#A3B1BF" d="M63.54845672 257.39231286l-.89322375-2.1037106 2.1038912-.89279649.89322421 2.10370971z"/><path d="M63.54845672 257.39231286l-.89322375-2.1037106 2.1038912-.89279649.89322421 2.10370971z"/><path fill-opacity=".6" fill="#A3B1BF" d="M65.0000509 260.81109093l-.89322375-2.1037106 2.10389158-.89279741.89322374 2.1037106z"/><path d="M65.0000509 260.81109093l-.89322375-2.1037106 2.10389158-.89279741.89322374 2.1037106z"/><path fill-opacity=".6" fill="#A3B1BF" d="M57.489148 251.89397697l-.89322385-2.10371064 2.10389167-.89279737.89322375 2.1037106z"/><path d="M57.489148 251.89397697l-.89322385-2.10371064 2.10389167-.89279737.89322375 2.1037106z"/><path fill-opacity=".6" fill="#A3B1BF" d="M58.94071827 255.31281308l-.89322374-2.1037106 2.1038912-.89279648.8932242 2.1037097z"/><path d="M58.94071827 255.31281308l-.89322374-2.1037106 2.1038912-.89279648.8932242 2.1037097z"/><path fill-opacity=".6" fill="#A3B1BF" d="M60.39237137 258.73161412l-.89322375-2.1037106 2.1038912-.89279649.89322412 2.10370968z"/><path d="M59.49914762 256.62790352l2.1038912-.89279649.89322412 2.10370968-2.10389157.8927974z"/><path fill-opacity=".6" fill="#A3B1BF" d="M61.84394218 262.15044997l-.89322412-2.10370968 2.10389157-.8927974.89322375 2.1037106z"/><path d="M61.84394218 262.15044997l-.89322412-2.10370968 2.10389157-.8927974.89322375 2.1037106z"/><path fill-opacity=".6" fill="#A3B1BF" d="M54.33303881 253.2333369l-.89322375-2.1037106 2.10389157-.89279742.89322384 2.10371064z"/><path d="M54.33303881 253.2333369l-.89322375-2.1037106 2.10389157-.89279742.89322384 2.10371064z"/><path fill-opacity=".6" fill="#A3B1BF" d="M55.784633 256.65211397l-.89322375-2.1037106 2.1038912-.89279649.89322412 2.10370968z"/><path d="M55.784633 256.65211397l-.89322375-2.1037106 2.1038912-.89279649.89322412 2.10370968z"/><path fill-opacity=".6" fill="#A3B1BF" d="M57.23628609 260.070915l-.89322375-2.1037106 2.1038912-.89279648.89322412 2.10370968z"/><path d="M57.23628609 260.070915l-.89322375-2.1037106 2.1038912-.89279648.89322412 2.10370968z"/><path fill-opacity=".6" fill="#A3B1BF" d="M58.68785683 263.48975123l-.89322421-2.10370971 2.10389166-.89279738.89322375 2.1037106z"/><path d="M58.68785683 263.48975123l-.89322421-2.10370971 2.10389166-.89279738.89322375 2.1037106z"/><path fill-opacity=".6" fill="#A3B1BF" d="M51.17695383 254.57263723l-.89322412-2.10370968 2.10389157-.8927974.89322375 2.1037106z"/><path d="M51.17695383 254.57263723l-.89322412-2.10370968 2.10389157-.8927974.89322375 2.1037106z"/><path fill-opacity=".6" fill="#A3B1BF" d="M52.62854772 257.99141486l-.89322375-2.1037106 2.10389157-.89279742.89322375 2.1037106z"/><path d="M52.62854772 257.99141486l-.89322375-2.1037106 2.10389157-.89279742.89322375 2.1037106z"/><path fill-opacity=".6" fill="#A3B1BF" d="M54.08020081 261.4102159l-.89322384-2.10371065 2.10389129-.89279644.89322412 2.10370967z"/><path d="M54.08020081 261.4102159l-.89322384-2.10371065 2.10389129-.89279644.89322412 2.10370967z"/><path fill-opacity=".6" fill="#A3B1BF" d="M55.53177146 264.82905208l-.89322412-2.10370968 2.10389157-.8927974.89322384 2.10371063z"/><path d="M55.53177146 264.82905208l-.89322412-2.10370968 2.10389157-.8927974.89322384 2.10371063z"/><path fill-opacity=".6" fill="#A3B1BF" d="M48.02086856 255.91193812l-.89322413-2.10370968 2.10389157-.89279741.89322375 2.1037106z"/><path d="M48.02086856 255.91193812l-.89322413-2.10370968 2.10389157-.89279741.89322375 2.1037106z"/><path fill-opacity=".6" fill="#A3B1BF" d="M49.47246237 259.33071612l-.89322384-2.10371064 2.10389166-.89279737.89322375 2.1037106z"/><path d="M49.47246237 259.33071612l-.89322384-2.10371064 2.10389166-.89279737.89322375 2.1037106z"/><path fill-opacity=".6" fill="#A3B1BF" d="M50.92409172 262.74957586l-.89322384-2.10371064 2.10389166-.89279738.89322375 2.1037106z"/><path d="M50.92409172 262.74957586l-.89322384-2.10371064 2.10389166-.89279738.89322375 2.1037106z"/><path fill-opacity=".6" fill="#A3B1BF" d="M52.37568581 266.1683529l-.89322375-2.1037106 2.1038912-.8927965.89322421 2.10370972z"/><path d="M52.37568581 266.1683529l-.89322375-2.1037106 2.1038912-.8927965.89322421 2.10370972z"/><path fill-opacity=".6" fill="#A3B1BF" d="M68.24757281 268.4596159l-.89322375-2.1037106 2.10389157-.89279742.89322384 2.10371064z"/><path d="M68.24757281 268.4596159l-.89322375-2.1037106 2.10389157-.89279742.89322384 2.10371064z"/><path fill-opacity=".6" fill="#A3B1BF" d="M69.699167 271.87839297l-.89322375-2.1037106 2.1038912-.89279649.89322412 2.10370968z"/><path d="M69.699167 271.87839297l-.89322375-2.1037106 2.1038912-.89279649.89322412 2.10370968z"/><path fill-opacity=".6" fill="#A3B1BF" d="M71.15079627 275.29725308l-.89322374-2.1037106 2.1038912-.89279648.89322412 2.10370967z"/><path d="M71.15079627 275.29725308l-.89322374-2.1037106 2.1038912-.89279648.89322412 2.10370967z"/><path fill-opacity=".6" fill="#A3B1BF" d="M72.60239083 278.71603023l-.89322421-2.10370971 2.10389166-.89279738.89322375 2.1037106z"/><path d="M72.60239083 278.71603023l-.89322421-2.10370971 2.10389166-.89279738.89322375 2.1037106z"/><path fill-opacity=".6" fill="#A3B1BF" d="M65.09148746 269.79891716l-.89322375-2.1037106 2.10389157-.89279742.89322384 2.10371064z"/><path d="M65.09148746 269.79891716l-.89322375-2.1037106 2.10389157-.89279742.89322384 2.10371064z"/><path fill-opacity=".6" fill="#A3B1BF" d="M66.54308172 273.21769386l-.89322375-2.1037106 2.10389157-.89279742.89322375 2.1037106z"/><path d="M66.54308172 273.21769386l-.89322375-2.1037106 2.10389157-.89279742.89322375 2.1037106z"/><path fill-opacity=".6" fill="#A3B1BF" d="M67.99465209 276.63653l-.89322384-2.10371063 2.10389129-.89279645.89322412 2.10370968z"/><path d="M67.99465209 276.63653l-.89322384-2.10371063 2.10389129-.89279645.89322412 2.10370968z"/><path fill-opacity=".6" fill="#A3B1BF" d="M69.44630556 280.05533112l-.89322422-2.10370972 2.10389166-.89279737.89322375 2.1037106z"/><path d="M69.44630556 280.05533112l-.89322422-2.10370972 2.10389166-.89279737.89322375 2.1037106z"/><path fill-opacity=".6" fill="#A3B1BF" d="M61.93540256 271.13821712l-.89322413-2.10370968 2.10389157-.89279741.89322375 2.1037106z"/><path d="M61.93540256 271.13821712l-.89322413-2.10370968 2.10389157-.89279741.89322375 2.1037106z"/><path fill-opacity=".6" fill="#A3B1BF" d="M63.38697255 274.5570542l-.89322384-2.10371065 2.10389167-.89279737.89322374 2.1037106z"/><path d="M63.38697255 274.5570542l-.89322384-2.10371065 2.10389167-.89279737.89322374 2.1037106z"/><path fill-opacity=".6" fill="#A3B1BF" d="M64.83856681 277.9758309l-.89322384-2.10371065 2.10389129-.89279644.89322412 2.10370967z"/><path d="M64.83856681 277.9758309l-.89322384-2.10371065 2.10389129-.89279644.89322412 2.10370967z"/><path fill-opacity=".6" fill="#A3B1BF" d="M66.29021981 281.3946319l-.89322375-2.1037106 2.1038912-.8927965.89322421 2.10370972z"/><path d="M66.29021981 281.3946319l-.89322375-2.1037106 2.1038912-.8927965.89322421 2.10370972z"/><path fill-opacity=".6" fill="#A3B1BF" d="M58.77931728 272.477518l-.89322413-2.10370967 2.10389158-.89279741.89322374 2.1037106z"/><path d="M58.77931728 272.477518l-.89322413-2.10370967 2.10389158-.89279741.89322374 2.1037106z"/><path fill-opacity=".6" fill="#A3B1BF" d="M60.23088727 275.89635508l-.89322384-2.10371064 2.10389167-.89279737.89322375 2.1037106z"/><path d="M60.23088727 275.89635508l-.89322384-2.10371064 2.10389167-.89279737.89322375 2.1037106z"/><path fill-opacity=".6" fill="#A3B1BF" d="M61.68248137 279.31513212l-.89322375-2.1037106 2.1038912-.89279649.89322421 2.10370972z"/><path d="M61.68248137 279.31513212l-.89322375-2.1037106 2.1038912-.89279649.89322421 2.10370972z"/><path fill-opacity=".6" fill="#A3B1BF" d="M63.13411072 282.73399186l-.89322375-2.1037106 2.1038912-.89279649.89322421 2.10370971z"/><path d="M63.13411072 282.73399186l-.89322375-2.1037106 2.1038912-.89279649.89322421 2.10370971z"/><path fill-opacity=".6" fill="#A3B1BF" d="M55.62314928 273.816854l-.89322422-2.1037097 2.10389167-.89279738.89322374 2.1037106z"/><path d="M55.62314928 273.816854l-.89322422-2.1037097 2.10389167-.89279738.89322374 2.1037106z"/><path fill-opacity=".6" fill="#A3B1BF" d="M57.0748019 277.23565593l-.89322375-2.1037106 2.10389158-.89279741.89322384 2.10371064z"/><path d="M57.0748019 277.23565593l-.89322375-2.1037106 2.10389158-.89279741.89322384 2.10371064z"/><path fill-opacity=".6" fill="#A3B1BF" d="M58.52639609 280.654433l-.89322375-2.1037106 2.1038912-.89279648.89322412 2.10370968z"/><path d="M58.52639609 280.654433l-.89322375-2.1037106 2.1038912-.89279648.89322412 2.10370968z"/><path fill-opacity=".6" fill="#A3B1BF" d="M59.97802537 284.07329312l-.89322375-2.1037106 2.1038912-.89279649.89322412 2.10370968z"/><path d="M59.97802537 284.07329312l-.89322375-2.1037106 2.1038912-.89279649.89322412 2.10370968z"/><path fill-opacity=".6" fill="#A3B1BF" d="M75.84991274 286.3645552l-.89322412-2.10370968 2.10389157-.89279741.89322384 2.10371064z"/><path d="M75.84991274 286.3645552l-.89322412-2.10370968 2.10389157-.89279741.89322384 2.10371064z"/><path fill-opacity=".6" fill="#A3B1BF" d="M77.30150655 289.7833332l-.89322375-2.1037106 2.10389158-.89279742.89322374 2.1037106z"/><path d="M77.30150655 289.7833332l-.89322375-2.1037106 2.10389158-.89279742.89322374 2.1037106z"/><path fill-opacity=".6" fill="#A3B1BF" d="M78.75310081 293.2021099l-.89322384-2.10371065 2.10389129-.89279644.89322394 2.1037096z"/><path d="M78.75310081 293.2021099l-.89322384-2.10371065 2.10389129-.89279644.89322394 2.1037096z"/><path fill-opacity=".6" fill="#A3B1BF" d="M80.20473009 296.62097l-.89322384-2.10371063 2.10389129-.89279645.89322366 2.10370949z"/><path d="M80.20473009 296.62097l-.89322384-2.10371063 2.10389129-.89279645.89322366 2.10370949z"/><path fill-opacity=".6" fill="#A3B1BF" d="M72.69376856 287.70383212l-.89322413-2.10370968 2.10389157-.89279741.89322375 2.1037106z"/><path d="M72.69376856 287.70383212l-.89322413-2.10370968 2.10389157-.89279741.89322375 2.1037106z"/><path fill-opacity=".6" fill="#A3B1BF" d="M74.14542127 291.12263408l-.89322384-2.10371064 2.10389167-.89279737.89322375 2.1037106z"/><path d="M74.14542127 291.12263408l-.89322384-2.10371064 2.10389167-.89279737.89322375 2.1037106z"/><path fill-opacity=".6" fill="#A3B1BF" d="M75.59699162 294.54146982l-.89322374-2.1037106 2.10389157-.89279741.89322384 2.10371064z"/><path d="M75.59699162 294.54146982l-.89322374-2.1037106 2.10389157-.89279741.89322384 2.10371064z"/><path fill-opacity=".6" fill="#A3B1BF" d="M77.04864472 297.96027086l-.89322375-2.1037106 2.1038912-.89279649.89322421 2.10370971z"/><path d="M77.04864472 297.96027086l-.89322375-2.1037106 2.1038912-.89279649.89322421 2.10370971z"/><path fill-opacity=".6" fill="#A3B1BF" d="M69.53768328 289.043133l-.89322422-2.1037097 2.10389167-.89279738.89322374 2.1037106z"/><path d="M69.53768328 289.043133l-.89322422-2.1037097 2.10389167-.89279738.89322374 2.1037106z"/><path fill-opacity=".6" fill="#A3B1BF" d="M70.9893359 292.46193493l-.89322375-2.1037106 2.10389158-.89279741.89322384 2.10371064z"/><path d="M70.9893359 292.46193493l-.89322375-2.1037106 2.10389158-.89279741.89322384 2.10371064z"/><path fill-opacity=".6" fill="#A3B1BF" d="M72.44090627 295.88077108l-.89322374-2.1037106 2.10389157-.89279741.89322384 2.10371064z"/><path d="M72.44090627 295.88077108l-.89322374-2.1037106 2.10389157-.89279741.89322384 2.10371064z"/><path fill-opacity=".6" fill="#A3B1BF" d="M73.89255937 299.29957212l-.89322375-2.1037106 2.1038912-.89279649.89322412 2.10370968z"/><path d="M73.89255937 299.29957212l-.89322375-2.1037106 2.1038912-.89279649.89322412 2.10370968z"/><path fill-opacity=".6" fill="#A3B1BF" d="M66.38159793 290.38243427l-.89322422-2.10370972 2.10389167-.89279737.89322374 2.1037106z"/><path d="M66.38159793 290.38243427l-.89322422-2.10370972 2.10389167-.89279737.89322374 2.1037106z"/><path fill-opacity=".6" fill="#A3B1BF" d="M67.833251 293.8012349l-.89322412-2.10370968 2.10389157-.89279741.89322384 2.10371064z"/><path d="M67.833251 293.8012349l-.89322412-2.10370968 2.10389157-.89279741.89322384 2.10371064z"/><path fill-opacity=".6" fill="#A3B1BF" d="M69.284821 297.22007197l-.89322375-2.1037106 2.10389157-.89279741.89322375 2.1037106z"/><path d="M69.284821 297.22007197l-.89322375-2.1037106 2.10389157-.89279741.89322375 2.1037106z"/><path fill-opacity=".6" fill="#A3B1BF" d="M70.73641518 300.63884904l-.89322384-2.10371064 2.10389129-.89279644.89322412 2.10370967z"/><path d="M70.73641518 300.63884904l-.89322384-2.10371064 2.10389129-.89279644.89322412 2.10370967z"/><path fill-opacity=".6" fill="#A3B1BF" d="M63.22551256 291.72173512l-.89322413-2.10370968 2.10389157-.89279741.89322385 2.10371064z"/><path d="M62.33228843 289.61802544l2.10389157-.89279741.89322385 2.10371064-2.1038913.89279645z"/><path fill-opacity=".6" fill="#A3B1BF" d="M64.677083 295.1405709l-.89322412-2.10370968 2.10389157-.89279741.89322375 2.1037106z"/><path d="M64.677083 295.1405709l-.89322412-2.10370968 2.10389157-.89279741.89322375 2.1037106z"/><path fill-opacity=".6" fill="#A3B1BF" d="M66.12873572 298.55937286l-.89322375-2.1037106 2.10389157-.89279742.89322375 2.1037106z"/><path d="M66.12873572 298.55937286l-.89322375-2.1037106 2.10389157-.89279742.89322375 2.1037106z"/><path fill-opacity=".6" fill="#A3B1BF" d="M67.5803299 301.97814993l-.89322384-2.10371064 2.1038913-.89279644.89322411 2.10370967z"/><path d="M67.5803299 301.97814993l-.89322384-2.10371064 2.1038913-.89279644.89322411 2.10370967zM20.24142832 196.259856l18.7514289-7.95726442-23.6737065-55.7571816-18.75225618 7.95761614zM33.0042198 200.31037767l-3.40576726-8.02122237-1.80203597.76470318 3.40576726 8.02122237z"/><path stroke="#A3B1BF" stroke-width="1.62" stroke-linejoin="round" d="M33.0042198 200.31037767l-3.40576726-8.02122237-1.80203597.76470318 3.40576726 8.02122237z"/><path fill-opacity=".8" fill="#A3B1BF" d="M31.62790813 204.57790684l3.6007638-1.52800238-1.64951485-3.88491789-3.60076418 1.5280033z"/><path stroke="#A3B1BF" stroke-width="1.62" fill="#FFF" stroke-linejoin="round" d="M31.62790813 204.57790684l3.6007638-1.52800238-1.64951485-3.88491789-3.60076418 1.5280033z"/><path fill-opacity=".8" fill="#A3B1BF" d="M32.48469962 184.23132152l.89322384 2.10371064 2.10389157-.89279741-.89322412-2.10370968z"/><path d="M32.48469962 184.23132152l.89322384 2.10371064 2.10389157-.89279741-.89322412-2.10370968z"/><path fill-opacity=".8" fill="#A3B1BF" d="M31.03310553 180.81254448l.89322374 2.1037106 2.10389158-.89279741-.89322375-2.1037106z"/><path d="M31.03310553 180.81254448l.89322374 2.1037106 2.10389158-.89279741-.89322375-2.1037106z"/><path fill-opacity=".8" fill="#A3B1BF" d="M29.58147625 177.39368437l.89322375 2.1037106 2.10389166-.89279737-.89322384-2.10371064z"/><path d="M29.58147625 177.39368437l.89322375 2.1037106 2.10389166-.89279737-.89322384-2.10371064z"/><path fill-opacity=".8" fill="#A3B1BF" d="M28.12988206 173.9749073l.89322412 2.10370967 2.1038913-.89279645-.89322385-2.10371064z"/><path d="M28.12988206 173.9749073l.89322412 2.10370967 2.1038913-.89279645-.89322385-2.10371064z"/><path fill-opacity=".8" fill="#A3B1BF" d="M29.32861434 185.5706224l.89322384 2.10371064 2.10389157-.8927974-.89322412-2.10370968z"/><path d="M29.32861434 185.5706224l.89322384 2.10371064 2.10389157-.8927974-.89322412-2.10370968z"/><path fill-opacity=".8" fill="#A3B1BF" d="M27.87702015 182.15184533l.89322385 2.10371064 2.10389157-.89279741-.89322375-2.1037106z"/><path d="M27.87702015 182.15184533l.89322385 2.10371064 2.10389157-.89279741-.89322375-2.1037106z"/><path fill-opacity=".8" fill="#A3B1BF" d="M26.42539097 178.73298525l.89322375 2.1037106 2.10389157-.8927974-.89322375-2.1037106z"/><path d="M26.42539097 178.73298525l.89322375 2.1037106 2.10389157-.8927974-.89322375-2.1037106z"/><path fill-opacity=".8" fill="#A3B1BF" d="M24.97379671 175.31420855l.89322412 2.10370968 2.1038913-.89279645-.89322385-2.10371064z"/><path d="M24.97379671 175.31420855l.89322412 2.10370968 2.1038913-.89279645-.89322385-2.10371064z"/><path fill-opacity=".8" fill="#A3B1BF" d="M26.17252906 186.9099233l.89322375 2.1037106 2.10389166-.89279738-.89322384-2.10371064z"/><path d="M26.17252906 186.9099233l.89322375 2.1037106 2.10389166-.89279738-.89322384-2.10371064z"/><path fill-opacity=".8" fill="#A3B1BF" d="M24.72093488 183.49114622l.89322421 2.10370971 2.1038912-.89279648-.89322375-2.1037106z"/><path d="M24.72093488 183.49114622l.89322421 2.10370971 2.1038912-.89279648-.89322375-2.1037106z"/><path fill-opacity=".8" fill="#A3B1BF" d="M23.26928171 180.07234555l.89322422 2.10370972 2.1038912-.89279649-.89322375-2.1037106z"/><path d="M23.26928171 180.07234555l.89322422 2.10370972 2.1038912-.89279649-.89322375-2.1037106z"/><path fill-opacity=".8" fill="#A3B1BF" d="M21.81771143 176.65350844l.89322375 2.1037106 2.10389157-.8927974-.89322412-2.10370968z"/><path d="M21.81771143 176.65350844l.89322375 2.1037106 2.10389157-.8927974-.89322412-2.10370968z"/><path fill-opacity=".8" fill="#A3B1BF" d="M23.01641997 188.24928325l.89322375 2.1037106 2.10389166-.89279737-.89322384-2.10371064z"/><path d="M23.01641997 188.24928325l.89322375 2.1037106 2.10389166-.89279737-.89322384-2.10371064z"/><path fill-opacity=".8" fill="#A3B1BF" d="M21.56479062 184.83042352l.89322375 2.1037106 2.10389166-.89279737-.89322384-2.10371064z"/><path d="M21.56479062 184.83042352l.89322375 2.1037106 2.10389166-.89279737-.89322384-2.10371064z"/><path fill-opacity=".8" fill="#A3B1BF" d="M20.11319643 181.41164644l.89322422 2.10370971 2.1038912-.89279648-.89322375-2.1037106z"/><path d="M20.11319643 181.41164644l.89322422 2.10370971 2.1038912-.89279648-.89322375-2.1037106z"/><path fill-opacity=".8" fill="#A3B1BF" d="M18.66162615 177.99280933l.89322375 2.1037106 2.10389157-.8927974-.89322412-2.10370968z"/><path d="M18.66162615 177.99280933l.89322375 2.1037106 2.10389157-.8927974-.89322412-2.10370968z"/><path fill-opacity=".8" fill="#A3B1BF" d="M19.86033462 189.58858452l.89322375 2.1037106 2.10389157-.89279741-.89322375-2.1037106z"/><path d="M19.86033462 189.58858452l.89322375 2.1037106 2.10389157-.89279741-.89322375-2.1037106z"/><path fill-opacity=".8" fill="#A3B1BF" d="M18.40870534 186.1697244l.89322375 2.1037106 2.10389157-.8927974-.89322375-2.1037106z"/><path d="M18.40870534 186.1697244l.89322375 2.1037106 2.10389157-.8927974-.89322375-2.1037106z"/><path fill-opacity=".8" fill="#A3B1BF" d="M16.95711115 182.75094733l.89322413 2.10370967 2.10389129-.89279644-.89322384-2.10371064z"/><path d="M16.95711115 182.75094733l.89322413 2.10370967 2.10389129-.89279644-.89322384-2.10371064z"/><path fill-opacity=".8" fill="#A3B1BF" d="M15.50545806 179.3321453l.89322384 2.10371063 2.10389157-.8927974-.89322412-2.10370968z"/><path d="M15.50545806 179.3321453l.89322384 2.10371063 2.10389157-.8927974-.89322412-2.10370968z"/><path fill-opacity=".8" fill="#A3B1BF" d="M24.88233634 166.3264404l.89322375 2.1037106 2.10389157-.8927974-.89322412-2.10370968z"/><path d="M24.88233634 166.3264404l.89322375 2.1037106 2.10389157-.8927974-.89322412-2.10370968z"/><path fill-opacity=".8" fill="#A3B1BF" d="M23.43076597 162.90760425l.89322375 2.1037106 2.10389166-.89279737-.89322421-2.10370971z"/><path d="M23.43076597 162.90760425l.89322375 2.1037106 2.10389166-.89279737-.89322421-2.10370971z"/><path fill-opacity=".8" fill="#A3B1BF" d="M21.97917171 159.48882755l.89322384 2.10371064 2.10389157-.8927974-.89322374-2.10371061z"/><path d="M21.97917171 159.48882755l.89322384 2.10371064 2.10389157-.8927974-.89322374-2.10371061z"/><path fill-opacity=".8" fill="#A3B1BF" d="M20.52754243 156.06996744l.89322422 2.10370971 2.1038912-.89279648-.89322375-2.1037106z"/><path d="M20.52754243 156.06996744l.89322422 2.10370971 2.1038912-.89279648-.89322375-2.1037106z"/><path fill-opacity=".8" fill="#A3B1BF" d="M21.72625106 167.6657413l.89322375 2.1037106 2.10389157-.89279742-.89322412-2.10370967z"/><path d="M21.72625106 167.6657413l.89322375 2.1037106 2.10389157-.89279742-.89322412-2.10370967z"/><path fill-opacity=".8" fill="#A3B1BF" d="M20.27468062 164.24690552l.89322375 2.1037106 2.10389157-.89279741-.89322375-2.1037106z"/><path d="M20.27468062 164.24690552l.89322375 2.1037106 2.10389157-.89279741-.89322375-2.1037106z"/><path fill-opacity=".8" fill="#A3B1BF" d="M18.82302753 160.82810448l.89322374 2.1037106 2.10389167-.89279737-.89322384-2.10371064z"/><path d="M18.82302753 160.82810448l.89322374 2.1037106 2.10389167-.89279737-.89322384-2.10371064z"/><path fill-opacity=".8" fill="#A3B1BF" d="M17.37143334 157.4093274l.89322422 2.10370972 2.1038912-.89279649-.89322376-2.1037106z"/><path d="M17.37143334 157.4093274l.89322422 2.10370972 2.1038912-.89279649-.89322376-2.1037106z"/><path fill-opacity=".8" fill="#A3B1BF" d="M18.57016562 169.00504252l.89322384 2.10371064 2.10389157-.89279741-.89322412-2.10370968z"/><path d="M18.57016562 169.00504252l.89322384 2.10371064 2.10389157-.89279741-.89322412-2.10370968z"/><path fill-opacity=".8" fill="#A3B1BF" d="M17.11857153 165.58626548l.89322374 2.1037106 2.10389158-.89279741-.89322375-2.1037106z"/><path d="M17.11857153 165.58626548l.89322374 2.1037106 2.10389158-.89279741-.89322375-2.1037106z"/><path fill-opacity=".8" fill="#A3B1BF" d="M15.66694225 162.16740537l.89322375 2.1037106 2.10389157-.89279741-.89322375-2.1037106z"/><path d="M15.66694225 162.16740537l.89322375 2.1037106 2.10389157-.89279741-.89322375-2.1037106z"/><path fill-opacity=".8" fill="#A3B1BF" d="M14.21534806 158.7486283l.89322412 2.10370967 2.1038913-.89279645-.89322385-2.10371064z"/><path d="M14.21534806 158.7486283l.89322412 2.10370967 2.1038913-.89279645-.89322385-2.10371064z"/><path fill-opacity=".8" fill="#A3B1BF" d="M15.41408034 170.3443434l.89322375 2.1037106 2.10389166-.89279737-.89322421-2.10370971z"/><path d="M15.41408034 170.3443434l.89322375 2.1037106 2.10389166-.89279737-.89322421-2.10370971z"/><path fill-opacity=".8" fill="#A3B1BF" d="M13.96250997 166.92550725l.89322384 2.10371064 2.10389157-.8927974-.89322375-2.1037106z"/><path d="M13.96250997 166.92550725l.89322384 2.10371064 2.10389157-.8927974-.89322375-2.1037106z"/><path fill-opacity=".8" fill="#A3B1BF" d="M12.51085697 163.50670625l.89322412 2.10370968 2.1038912-.89279648-.89322375-2.1037106z"/><path d="M12.51085697 163.50670625l.89322412 2.10370968 2.1038912-.89279648-.89322375-2.1037106z"/><path fill-opacity=".8" fill="#A3B1BF" d="M11.05926271 160.08792855l.89322375 2.1037106 2.10389166-.89279737-.89322421-2.10370971z"/><path d="M11.05926271 160.08792855l.89322375 2.1037106 2.10389166-.89279737-.89322421-2.10370971z"/><path fill-opacity=".8" fill="#A3B1BF" d="M12.25799506 171.6836443l.89322375 2.1037106 2.10389166-.89279738-.89322384-2.10371064z"/><path d="M12.25799506 171.6836443l.89322375 2.1037106 2.10389166-.89279738-.89322384-2.10371064z"/><path fill-opacity=".8" fill="#A3B1BF" d="M10.80640088 168.26486722l.89322421 2.10370971 2.1038912-.89279648-.89322375-2.1037106z"/><path d="M10.80640088 168.26486722l.89322421 2.10370971 2.1038912-.89279648-.89322375-2.1037106z"/><path fill-opacity=".8" fill="#A3B1BF" d="M9.35477153 164.84600748l.89322421 2.10370971 2.1038912-.89279648-.89322375-2.1037106z"/><path d="M9.35477153 164.84600748l.89322421 2.10370971 2.1038912-.89279648-.89322375-2.1037106z"/><path fill-opacity=".8" fill="#A3B1BF" d="M7.90317743 161.42722944l.89322375 2.1037106 2.10389157-.8927974-.89322412-2.10370968z"/><path d="M7.90317743 161.42722944l.89322375 2.1037106 2.10389157-.8927974-.89322412-2.10370968z"/><path fill-opacity=".8" fill="#A3B1BF" d="M17.28005562 148.42152452l.89322375 2.1037106 2.10389166-.89279737-.89322421-2.10370972z"/><path d="M17.28005562 148.42152452l.89322375 2.1037106 2.10389166-.89279737-.89322421-2.10370972z"/><path fill-opacity=".8" fill="#A3B1BF" d="M15.82842634 145.0026644l.89322384 2.10371064 2.10389157-.8927974-.89322412-2.10370968z"/><path d="M15.82842634 145.0026644l.89322384 2.10371064 2.10389157-.8927974-.89322412-2.10370968z"/><path fill-opacity=".8" fill="#A3B1BF" d="M14.37683215 141.58388733l.89322385 2.10371064 2.10389157-.89279741-.89322375-2.1037106z"/><path d="M14.37683215 141.58388733l.89322385 2.10371064 2.10389157-.89279741-.89322375-2.1037106z"/><path fill-opacity=".8" fill="#A3B1BF" d="M12.92523806 138.1651103l.89322412 2.10370967 2.1038912-.89279649-.89322375-2.1037106z"/><path fill="#B2BECA" d="M13.81846218 140.26881997l2.1038912-.89279649-.89322375-2.1037106-2.10389157.89279741z"/><path fill-opacity=".8" fill="#A3B1BF" d="M14.12397034 149.7608254l.89322375 2.1037106 2.10389166-.89279737-.89322421-2.10370971z"/><path d="M14.12397034 149.7608254l.89322375 2.1037106 2.10389166-.89279737-.89322421-2.10370971z"/><path fill-opacity=".8" fill="#A3B1BF" d="M12.67231725 146.34202437l.89322375 2.1037106 2.10389166-.89279737-.89322422-2.10370972z"/><path d="M12.67231725 146.34202437l.89322375 2.1037106 2.10389166-.89279737-.89322422-2.10370972z"/><path fill-opacity=".8" fill="#A3B1BF" d="M11.22074688 142.92318822l.89322384 2.10371064 2.10389157-.89279741-.89322375-2.1037106z"/><path d="M11.22074688 142.92318822l.89322384 2.10371064 2.10389157-.89279741-.89322375-2.1037106z"/><path fill-opacity=".8" fill="#A3B1BF" d="M9.7690938 139.5043876l.89322375 2.1037106 2.10389157-.89279742-.89322374-2.1037106z"/><path d="M9.7690938 139.5043876l.89322375 2.1037106 2.10389157-.89279742-.89322374-2.1037106z"/><path fill-opacity=".8" fill="#A3B1BF" d="M10.96782615 151.10010233l.89322375 2.1037106 2.10389157-.8927974-.89322412-2.10370968z"/><path d="M10.96782615 151.10010233l.89322375 2.1037106 2.10389157-.8927974-.89322412-2.10370968z"/><path fill-opacity=".8" fill="#A3B1BF" d="M9.51623197 147.68132525l.89322375 2.1037106 2.10389166-.89279737-.89322384-2.10371064z"/><path d="M9.51623197 147.68132525l.89322375 2.1037106 2.10389166-.89279737-.89322384-2.10371064z"/><path fill-opacity=".8" fill="#A3B1BF" d="M8.06466153 144.26248948l.89322374 2.1037106 2.10389167-.89279737-.89322384-2.10371064z"/><path d="M8.06466153 144.26248948l.89322374 2.1037106 2.10389167-.89279737-.89322384-2.10371064z"/><path fill-opacity=".8" fill="#A3B1BF" d="M6.61300843 140.84368844l.89322422 2.10370971 2.1038912-.89279648-.89322375-2.1037106z"/><path d="M6.61300843 140.84368844l.89322422 2.10370971 2.1038912-.89279648-.89322375-2.1037106z"/><path fill-opacity=".8" fill="#A3B1BF" d="M7.81174071 152.43940355l.89322384 2.10371064 2.10389157-.8927974-.89322412-2.10370968z"/><path d="M7.81174071 152.43940355l.89322384 2.10371064 2.10389157-.8927974-.89322412-2.10370968z"/><path fill-opacity=".8" fill="#A3B1BF" d="M6.36014662 149.02062652l.89322375 2.1037106 2.10389157-.89279741-.89322375-2.1037106z"/><path d="M6.36014662 149.02062652l.89322375 2.1037106 2.10389157-.89279741-.89322375-2.1037106z"/><path fill-opacity=".8" fill="#A3B1BF" d="M4.90857625 145.60179037l.89322375 2.1037106 2.10389166-.89279737-.89322384-2.10371064z"/><path d="M4.90857625 145.60179037l.89322375 2.1037106 2.10389166-.89279737-.89322384-2.10371064z"/><path fill-opacity=".8" fill="#A3B1BF" d="M3.45692315 142.18298933l.89322413 2.10370967 2.10389129-.89279644-.89322384-2.10371064z"/><path d="M3.45692315 142.18298933l.89322413 2.10370967 2.10389129-.89279644-.89322384-2.10371064z"/><path fill-opacity=".8" fill="#A3B1BF" d="M4.65565543 153.77870444l.89322384 2.10371064 2.10389158-.89279741-.89322413-2.10370967z"/><path d="M4.65565543 153.77870444l.89322384 2.10371064 2.10389158-.89279741-.89322413-2.10370967z"/><path fill-opacity=".8" fill="#A3B1BF" d="M3.20406125 150.35992737l.89322384 2.10371064 2.10389157-.89279741-.89322375-2.1037106z"/><path d="M3.20406125 150.35992737l.89322384 2.10371064 2.10389157-.89279741-.89322375-2.1037106z"/><path fill-opacity=".8" fill="#A3B1BF" d="M1.75240825 146.94112637l.89322375 2.1037106 2.10389157-.89279741-.89322375-2.1037106z"/><path d="M1.75240825 146.94112637l.89322375 2.1037106 2.10389157-.89279741-.89322375-2.1037106z"/><path fill-opacity=".8" fill="#A3B1BF" d="M.30083788 143.52229022l.89322412 2.10370967 2.10389129-.89279644-.89322384-2.10371064z"/><path d="M.30083788 143.52229022l.89322412 2.10370967 2.10389129-.89279644-.89322384-2.10371064z"/><path d="M108.97572937 190.43959392c-1.62575224-3.83010283-2.28942303-7.2125824-1.4814424-7.55545305.80797972-.34287102 2.78079441 2.48406819 4.40737366 6.3138192 1.62575224 3.83010284 2.28942396 7.2125828 1.48144332 7.55545344-.80798064.34287064-2.7807944-2.4840682-4.40737458-6.31381959z" fill="#F5F5F5"/><path d="M108.97572937 190.43959392c-1.62575224-3.83010283-2.28942303-7.2125824-1.4814424-7.55545305.80797972-.34287102 2.78079441 2.48406819 4.40737366 6.3138192 1.62575224 3.83010284 2.28942396 7.2125828 1.48144332 7.55545344-.80798064.34287064-2.7807944-2.4840682-4.40737458-6.31381959z" stroke="#A3B1BF" stroke-width="1.62" stroke-linejoin="round"/><path d="M115.40616242 187.71046508c-3.24917147-7.65241114-4.57488294-14.41123165-2.96057587-15.09627154 1.61430578-.68503934 5.55664937 4.96340015 8.80582177 12.61581167 3.24952291 7.65323908 4.57523438 14.4120596 2.96092768 15.09709855-1.61430578.68503934-5.55664936-4.96340015-8.80617358-12.61663868z" fill="#F5F5F5"/><path d="M115.40616242 187.71046508c-3.24917147-7.65241114-4.57488294-14.41123165-2.96057587-15.09627154 1.61430578-.68503934 5.55664937 4.96340015 8.80582177 12.61581167 3.24952291 7.65323908 4.57523438 14.4120596 2.96092768 15.09709855-1.61430578.68503934-5.55664936-4.96340015-8.80617358-12.61663868z" stroke="#A3B1BF" stroke-width="1.62" stroke-linejoin="round"/><path d="M125.789471 183.30464559c-4.35446686-10.25558734-6.13128368-19.3135409-3.96784852-20.23160577 2.16343516-.91806487 7.44673859 6.65189363 11.80120545 16.90748097 4.35446648 10.25558826 6.13128368 19.3135409 3.96784814 20.23160669-2.16343609.9180645-7.44673859-6.65189363-11.80120507-16.9074819z" fill-opacity=".35" fill="#F5F5F5"/><path d="M125.789471 183.30464559c-4.35446686-10.25558734-6.13128368-19.3135409-3.96784852-20.23160577 2.16343516-.91806487 7.44673859 6.65189363 11.80120545 16.90748097 4.35446648 10.25558826 6.13128368 19.3135409 3.96784814 20.23160669-2.16343609.9180645-7.44673859-6.65189363-11.80120507-16.9074819z" stroke="#A3B1BF" stroke-width="1.62" stroke-linejoin="round"/><path d="M44.71549565 90.5587206c-2.53664177-1.13869946-4.21909147-2.49337093-3.93542358-3.27274203.2833562-.77851476 2.43852263-.7357468 5.10957295.02007952 1.13153032-2.53551 2.46201115-4.22315043 3.21388196-3.94949184.7518709.27365863.686284 2.4216828-.076708 5.09132978 2.53197905 1.1379215 4.21042304 2.49047362 3.92706684 3.26898838-.28366788.7793711-2.44326517.73565183-5.1183873-.02257563-1.12027433 2.4722328-2.42227446 4.10562875-3.16287742 3.83607132-.74060295-.26955743-.68806614-2.35772085.04287455-4.9716595z" fill-opacity=".4" fill="#A3B1BF" opacity=".85"/><path d="M98.775569 330.140492l-.350581.385654c-.902744.993054-2.439592 1.066265-3.432647.163521-.395407-.359449-.661306-.839211-.756538-1.365026l-.092728-.511994-.473818-.213556c-1.22352-.551456-1.768336-1.990357-1.21688-3.213877.219638-.487314.593827-.888613 1.064614-1.141745l.458219-.246374.056948-.51811c.146628-1.334018 1.346929-2.296587 2.680947-2.149959.531075.058373 1.028109.290144 1.414194.65945l.376658.360289.509383-.105803c1.314006-.272931 2.600473.571027 2.873404 1.885033.108705.523354.041817 1.067948-.190307 1.549441l-.225695.468158.25807.451815c.665629 1.16535.260525 2.649652-.904825 3.315281-.464012.265036-1.002447.369731-1.531964.29788l-.516454-.070078zM412.96515136 121.00147904l-.00042047.00025035c-.72311103.42981876-1.65774635.19205795-2.0875651-.53105307-.17114232-.2879237-.24260524-.62423152-.20332726-.95686803-.63225842-.55470336-.69512841-1.51692569-.14042506-2.1491841.2209325-.25182083.5187315-.42377008.8472755-.48921743l.00029734-.00005865c.3324248-.772906 1.22847274-1.1299849 2.0013788-.7975591.30769477.13233887.56319814.36239514.72697595.65457209l.00030084.0000273c.83754796.07719591 1.45393621.8187419 1.3767403 1.65628986-.03074658.33358632-.1706254.64772753-.397973.89377218.18542772.82051796-.32941486 1.63599932-1.14993281 1.82142704-.32670863.0738328-.66864503.03791514-.9728797-.10219347l-.00044533-.00020497zM78.26019446 39.50920083l-.83317216.12790027c-1.32651302.20363292-2.56694155-.70664125-2.77057453-2.03315438-.08108126-.5281821.01420107-1.06836303.27109836-1.5369293l.40479881-.73833019-.37858111-.75147223c-.60381108-1.19854722-.12168212-2.6596474 1.0768651-3.26345848.477368-.2404913 1.0207126-.31687414 1.54588402-.21731904l.8272795.1568248.59887278-.59320368c.95347618-.94445032 2.49204962-.93713347 3.43650041.01634288.375987.37958047.61639692.87249402.68402954 1.40246936l.10670544.83615374.7484568.38574472c1.19293494.61482317 1.66158773 2.08030154 1.04676439 3.27323728-.24487742.47513293-.63958418.85626838-1.12299117 1.0843782l-.76097858.35909037-.13557564.83103115c-.21608726 1.32454148-1.4650143 2.22312047-2.78955494 2.00703296-.52739732-.08604048-1.01172736-.34352557-1.37802148-.73259958l-.57780554-.61373885zM376.631073 306.744172l-.532948-.135576c-1.300627-.330865-2.086775-1.65345-1.75591-2.954078.131741-.517875.430514-.977885.850073-1.308824l.431088-.340034-.035759-.547288c-.087501-1.339196.927198-2.495763 2.266395-2.583264.533387-.034851 1.063383.107139 1.507907.403981l.456554.304876.510889-.203592c1.246706-.496818 2.660111.111086 3.156929 1.357791.197785.496316.226486 1.043981.081665 1.558252l-.149074.529372.350928.422184c.857872 1.032066.716661 2.564163-.315404 3.422035-.41106.341681-.923311.538294-1.457419.559388l-.548027.021644-.29311.46427c-.716449 1.134814-2.217195 1.473966-3.35201.757517-.451852-.285271-.797073-.71153-.982226-1.212797l-.190541-.515857zM420.26257053 147.29448633l-.00037634.00031207c-.64696986.53764646-1.60729205.44902304-2.14493851-.19794682-.21407645-.25760632-.3372699-.57859534-.3505113-.91328098-.711249-.44896703-.92386969-1.38950778-.47490245-2.10075579.1788178-.28328272.4460526-.49970122.76031366-.61573744l.0002843-.00010541c.20742317-.81539197 1.03657962-1.30824839 1.85197278-1.10082445.3246091.08257647.61295553.26983083.8204233.53278913l.00030162-.00001913c.83931224-.05477683 1.56411431.58121632 1.61889115 1.42052856.02181615.33428817-.0671978.66644462-.25325672.94502408.31150229.7814097-.06943254 1.66738929-.85084106 1.97889235-.31113631.12403228-.65448187.14204649-.9768897.05125585l-.00047073-.00013202z" fill-opacity=".4" fill="#A3B1BF"/><path d="M224.621971 221.61341c32.537479 0 58.914317-26.371298 58.914317-58.901943 0-32.530645-26.376838-58.901943-58.914317-58.901943-32.53748 0-58.914318 26.371298-58.914318 58.901943 0 32.530645 26.376838 58.901943 58.914318 58.901943z" fill-opacity=".66" fill="#A3B1BF"/><path d="M225.345696 142.060063c-4.19904 0-7.46496 1.282286-9.79776 3.846858-2.3328 2.448-3.44088 5.712-3.44088 9.792h4.60728c0-2.856.64152-5.070858 1.92456-6.702858 1.39968-1.923428 3.55752-2.856 6.47352-2.856 2.44944 0 4.374.641143 5.71536 2.04 1.28304 1.282286 1.98288 3.089143 1.98288 5.420572 0 1.632-.5832 3.147428-1.7496 4.604571-.34992.466286-1.04976 1.165715-1.98288 2.098286-3.14928 2.797714-5.07384 5.012571-5.89032 6.761143-.69984 1.457143-1.04976 3.147428-1.04976 5.070857v1.340571h4.6656v-1.340571c0-1.573714.34992-2.972571 1.10808-4.254857.5832-1.049143 1.458-2.098286 2.74104-3.205714 2.56608-2.273143 4.14072-3.788572 4.72392-4.488 1.458-1.923429 2.21616-4.196572 2.21616-6.819429 0-3.497143-1.10808-6.236571-3.26592-8.218286-2.27448-2.098285-5.2488-3.089143-8.98128-3.089143zm-.8748 35.496c-.99144 0-1.80792.291429-2.50776.990858-.69984.641142-.99144 1.457142-.99144 2.448 0 .990857.2916 1.806857.99144 2.506285.69984.641143 1.51632.990857 2.50776.990857.99144 0 1.80792-.349714 2.50776-.990857.69984-.641143 1.04976-1.457143 1.04976-2.506285 0-.990858-.34992-1.806858-.99144-2.448-.69984-.699429-1.57464-.990858-2.56608-.990858z" fill="#FFF"/><path d="M203.261662 134.139924c5.815676-3.356977 16.370146-7.311651 13.012464-13.126105-3.357682-5.814455-15.708258-4.970073-21.523933-1.613097-5.815676 3.356977-12.020359 13.223229-8.662677 19.037683 3.357682 5.814454 11.35847-.941505 17.174146-4.298481M229.679003 120.820589c2.686146 0 4.863697-2.177094 4.863697-4.862676 0-2.685581-2.177551-4.862675-4.863697-4.862675-2.686146 0-4.863697 2.177094-4.863697 4.862675 0 2.685582 2.177551 4.862676 4.863697 4.862676z" fill="#FAFAFA"/><path d="M401.5 322.5l1.5 1.5" stroke="#979797" stroke-linecap="square"/></g></svg>