<svg viewBox="0 0 600 600" xmlns="http://www.w3.org/2000/svg"><g fill="#61dafb"><path d="M143.04 57.02c8.61-9.58 21.21-15.06 34-15.67 17.64-1.17 34.89 4.55 50.7 11.85 26.73 12.75 50.38 31.08 72.07 51.06 24.14-22.25 50.64-42.84 81.23-55.39 17.18-6.91 36.69-11.24 54.84-5.49 14.73 4.59 25.79 16.93 31.78 30.8 9.14 20.93 10.62 44.27 9.78 66.81-.86 20.63-4.08 41.1-8.58 61.23 19.82 6.21 39.34 13.57 57.77 23.22 16.71 8.76 32.83 19.23 45.77 33.11 9.34 10.08 17.01 22.5 18.54 36.4 1.48 12.26-2.53 24.6-9.19 34.81-8.84 13.57-21.45 24.21-34.78 33.19-23.75 15.62-50.31 26.48-77.37 34.93 5.63 25.3 9.39 51.17 8.85 77.14-.63 19.87-3.52 40.41-13.56 57.9-6.72 11.84-17.97 21.35-31.39 24.44-18.33 4.34-37.37-.5-54.38-7.54-29.44-12.61-55.14-32.41-78.59-53.94-16.31 15.15-33.72 29.24-52.73 40.88-16.54 10.07-34.46 18.57-53.7 21.75-13.79 2.25-28.84 1.04-40.75-6.81-13.45-8.57-21.31-23.48-25.54-38.44-6.72-24.14-6.21-49.61-3.59-74.32 1.58-13.76 4.03-27.4 7.02-40.92-18.05-5.69-35.87-12.27-52.83-20.72-21.04-10.55-41.68-23.52-56.35-42.3-9.69-12.31-15.64-28.51-12.25-44.22 4.16-19.63 18.75-34.95 34.15-46.83 25.84-19.43 56.17-31.83 86.79-41.57-6.96-31.56-11.38-64.21-7.38-96.48 2.39-17.49 7.54-35.55 19.67-48.88m265.92 11c-17.11 3.17-32.73 11.5-47.26 20.78-15.35 9.96-29.56 21.6-42.96 34.04 17.81 18.6 34.15 38.57 49.36 59.34 25.32 2.76 50.55 6.81 75.28 12.96 6.43-29.42 10.55-59.99 5.94-89.99-2.03-11.37-5.15-23.48-13.62-31.86-7.04-6.7-17.73-6.77-26.74-5.27m-245.8 6.11c-8.9 9.36-11.71 22.63-13.6 34.99-3.7 28.8.48 57.93 6.68 86.09 6.66-1 13.12-3.05 19.76-4.22 18.16-3.73 36.51-6.59 54.95-8.46 1.23-.03 1.78-1.28 2.47-2.08 14.6-20.22 30.57-39.46 47.78-57.52-18.36-16.76-38.07-32.37-60.24-43.79-11.58-5.83-23.97-10.74-37.03-11.6-7.34-.24-15.56.84-20.77 6.59m136.55 67.49c-11.54 12.06-22.37 24.77-32.62 37.94 21.86-1.07 43.76-.97 65.63 0-10.48-13.09-21.36-25.88-33.01-37.94m-53.26 66.13c-20.3 29.33-38.06 60.4-53.2 92.69 15.12 32.3 33.09 63.27 53.52 92.5 35.58 2.77 71.37 2.98 106.93-.19 20.27-29.35 38-60.45 53.17-92.73-15.11-32.24-33.1-63.1-53.37-92.36-35.6-2.98-71.45-3.01-107.05.09m-83.47 13.18c4.72 15.98 10.17 31.73 16.36 47.2 9.94-19.35 20.77-38.24 32.49-56.58-16.4 2.5-32.7 5.59-48.85 9.38m225.07-9.37c11.77 18.22 22.74 36.95 32.62 56.26 5.91-15.42 11.41-31.01 15.97-46.88-16.04-3.89-32.26-6.97-48.59-9.38M58.4 266.24c-9.25 7.51-18.59 16.25-22.25 27.95-2.88 9.1 1.78 18.39 7.39 25.37 9.5 11.7 22.15 20.33 35.06 27.86 18.61 10.64 38.68 18.46 59.09 24.87 7.02-24.56 16.01-48.54 26.31-71.92-10.42-23.49-19.5-47.6-26.69-72.29-27.87 8.91-55.57 20.15-78.91 38.16m403.92-38.28c-7.05 24.57-16.03 48.55-26.32 71.94 10.46 23.49 19.42 47.65 26.75 72.3 27.97-9.02 55.84-20.26 79.2-38.47 9.16-7.44 18.36-16.14 21.99-27.72 2.81-8.66-1.42-17.61-6.66-24.4-9.14-11.69-21.51-20.35-34.17-27.85-19.06-11.16-39.76-19.21-60.79-25.8M163.34 379.33c16.05 3.87 32.29 6.89 48.61 9.37-11.71-18.22-22.72-36.9-32.6-56.17-6.01 15.36-11.42 30.96-16.01 46.8m257.3-47.32c-9.88 19.42-20.74 38.33-32.45 56.69 16.4-2.42 32.69-5.6 48.82-9.49-4.71-15.98-10.16-31.74-16.37-47.2m-263.97 73.16c-5.26 24.23-8.85 49.04-7.61 73.89.69 11.34 2.2 22.79 6.29 33.46 2.48 6.3 5.99 12.54 11.62 16.54 6.01 3.96 13.6 4.54 20.58 3.69 14.09-1.74 27.26-7.66 39.58-14.47 19.77-11.16 37.59-25.47 54.26-40.82-17.79-18.65-34.17-38.61-49.39-59.4-25.36-2.66-50.54-6.95-75.33-12.89m211.55 12.79c-15 20.81-31.36 40.64-49.01 59.26 20.46 18.61 42.6 36 67.98 47.39 12.26 5.23 25.8 9.6 39.24 7.15 8.55-1.64 14.3-9.12 17.62-16.66 5.12-11.67 6.81-24.51 7.46-37.13 1.1-24.59-2.43-49.14-7.82-73.07-24.8 6.19-50.07 10.32-75.47 13.06m-100.93 2.73c10.47 13.11 21.36 25.88 33.01 37.95 11.52-12.07 22.38-24.76 32.61-37.94-21.86 1.11-43.76 1-65.62-.01z"/><path d="M290.5 246.7c11.38-1.97 23.4-.35 33.72 4.9 13.38 6.62 23.72 19.06 27.81 33.42 4.19 14.4 2.12 30.51-5.75 43.3-8.34 13.85-23.15 23.63-39.23 25.59-13.84 1.9-28.37-1.87-39.52-10.31-9.73-7.18-16.9-17.75-19.99-29.45-3.74-13.94-1.69-29.36 5.77-41.74 7.9-13.41 21.84-23.08 37.19-25.71z"/></g></svg>